<?xml version="1.0" standalone="no"?>
<!DOCTYPE svg PUBLIC "-//W3C//DTD SVG 20010904//EN"
 "http://www.w3.org/TR/2001/REC-SVG-20010904/DTD/svg10.dtd">
<svg version="1.0" xmlns="http://www.w3.org/2000/svg"
 width="651.000000pt" height="651.000000pt" viewBox="0 0 651.000000 651.000000"
 preserveAspectRatio="xMidYMid meet">
<metadata>
Created by potrace 1.14, written by Peter Selinger 2001-2017
</metadata>
<g transform="translate(0.000000,651.000000) scale(0.100000,-0.100000)"
fill="#000000" stroke="none">
<path d="M1120 3260 l0 -2760 2120 0 2120 0 0 425 0 425 -140 0 -140 0 0 -285
0 -285 -1840 0 -1840 0 0 2480 0 2480 1840 0 1840 0 0 -880 0 -880 140 0 140
0 0 1020 0 1020 -2120 0 -2120 0 0 -2760z"/>
<path d="M888 5764 c-2 -1 -34 -5 -73 -8 -275 -21 -255 -17 -250 -48 2 -13 6
-50 9 -83 7 -72 16 -149 22 -190 2 -16 6 -48 9 -70 2 -22 6 -60 9 -85 13 -110
17 -147 21 -180 2 -19 4 -35 5 -35 1 0 3 -20 5 -45 2 -25 7 -65 10 -90 4 -25
9 -67 11 -95 2 -27 6 -64 9 -81 2 -17 7 -57 11 -89 3 -32 8 -67 10 -78 2 -11
6 -52 10 -91 3 -39 8 -82 10 -96 3 -14 7 -43 9 -65 2 -22 6 -58 9 -80 3 -22 8
-65 11 -95 3 -30 8 -71 10 -90 3 -19 7 -54 10 -77 3 -24 7 -60 9 -80 3 -21 7
-65 10 -98 4 -33 8 -71 11 -85 5 -24 18 -151 18 -177 0 -7 3 -13 6 -13 3 0 7
-24 8 -53 1 -28 4 -72 8 -97 3 -25 8 -65 10 -90 3 -25 7 -58 9 -75 3 -16 8
-58 11 -92 3 -34 8 -71 10 -83 2 -12 7 -47 10 -78 3 -31 8 -77 11 -102 2 -25
7 -65 9 -90 3 -25 7 -61 10 -80 3 -19 8 -60 11 -90 3 -30 7 -71 9 -90 2 -19 4
-41 4 -47 1 -7 5 -13 10 -13 5 0 8 20 7 45 -1 25 2 45 7 45 6 0 6 5 1 13 -5 7
-9 456 -9 1039 0 566 -4 1028 -8 1028 -5 0 -5 5 -1 11 8 13 9 167 1 175 -3 3
-2 16 3 29 5 13 7 25 4 28 -2 2 -5 204 -7 448 l-2 444 -27 1 c-15 1 -29 0 -30
-2z"/>
<path d="M505 4989 c-16 -5 -48 -11 -70 -15 -22 -3 -43 -7 -46 -10 -4 -2 -22
-6 -40 -9 -19 -2 -72 -13 -119 -23 -71 -16 -85 -22 -84 -38 2 -25 5 -37 64
-264 28 -107 54 -206 56 -220 3 -14 9 -38 14 -55 5 -16 43 -163 84 -325 82
-320 125 -490 187 -730 22 -85 42 -162 44 -170 3 -16 123 -484 175 -685 17
-66 44 -169 60 -230 28 -109 28 -109 24 -45 -3 36 -7 81 -9 100 -2 19 -9 82
-15 140 -6 58 -13 119 -16 135 -2 17 -6 55 -8 85 -3 30 -7 71 -10 90 -3 19 -7
60 -10 90 -3 30 -8 82 -12 115 -3 33 -7 76 -10 95 -6 55 -25 221 -30 270 -2
25 -6 59 -8 75 -3 17 -8 62 -11 100 -4 39 -13 124 -21 190 -7 66 -16 149 -19
185 -3 36 -10 99 -15 140 -5 41 -12 104 -15 140 -3 36 -8 72 -10 80 -2 8 -6
47 -10 85 -7 80 -14 147 -20 190 -2 17 -7 62 -11 100 -3 39 -8 84 -10 100 -4
33 -12 104 -19 174 -10 103 -18 151 -24 150 -3 0 -19 -5 -36 -10z"/>
<path d="M1880 4330 l0 -220 855 0 855 0 0 220 0 220 -855 0 -855 0 0 -220z"/>
<path d="M1880 3475 l0 -235 1625 0 1625 0 0 235 0 235 -1625 0 -1625 0 0
-235z"/>
<path d="M1880 2645 l0 -235 1625 0 1625 0 0 235 0 235 -1625 0 -1625 0 0
-235z"/>
<path d="M944 2431 c0 -15 3 -17 13 -9 7 6 10 14 7 19 -9 15 -20 10 -20 -10z"/>
<path d="M1880 1885 l0 -235 1625 0 1625 0 0 235 0 235 -1625 0 -1625 0 0
-235z"/>
</g>
</svg>
